<svg id="Capa_1" data-name="Capa 1" xmlns="http://www.w3.org/2000/svg" viewBox="0 0 1000 780.71"><defs><style>.cls-1{fill:#5764ec;}</style></defs><path class="cls-1" d="M629.8,564.4H500.2v-.1H369c-9.5,0-13.9,3.6-15.1,12.1-1.7,11.7,4.3,18.1,17,18.1H547.3l82.9-.1c6.7,0,12.7-1.5,15.1-8.6C649.5,573.3,643,564.4,629.8,564.4Zm212.3-66.6c14.8-.1,24.8-6.7,28.6-18.3,2.1-6.4,1.1-13.1,1.2-19.6.1-20-10.3-30.5-30.3-30.5H500.5s-227.4,0-341.1-.1c-7.9,0-14.9,1.3-21.3,6.1-10.3,7.9-9.4,19-10.1,30.4-1.4,22,13.6,32.5,31.9,32.4,68.5-.3,137.1-.2,205.6-.2h345c43.9-.1,87.8,0,131.6-.2ZM552.5,647.7q39.6,0,79.2-.1c10.1,0,14.2-4.4,14.4-14.2.1-11.3-4.3-15.7-16.1-15.8q-34.35-.15-68.6-.1-95.4,0-190.9.1c-11.9,0-16.5,4.7-16.4,15.7.1,10,4.6,14.3,15.9,14.3,43.3.1,86.5,0,129.8,0,17.4.1,35.1.1,52.7.1ZM249.3,379.8c83.6-.5,167.3-.2,251-.2v-.1h252c21.4,0,31.6-10.1,31.6-31.1v-6.9c-.1-19.7-10.8-30.5-30.6-30.5q-253.95,0-507.9.1c-13.3,0-23.6,6.8-27.8,18.1-2.1,5.8-.5,11.8-1.1,17.6C214,370.3,230.8,379.8,249.3,379.8Zm750.5-245c0-15.1,2.6-13.6-13.7-13.6q-205.65-.15-411.3.1-281.25,0-562.6-.3C1.7,121-.1,124.1,0,133.7c.4,58.7.2,117.4.2,176V813c0,6.4-.4,10.9,8.9,10.8,64.9-.4,129.8-.1,194.8-.1q212.1,0,424.1-.1c20.5,0,19.9.1,20.6-20.6.3-9.6-3.1-11.1-11.6-11.1q-143.85.45-287.7.1-153.3,0-306.5.1c-8.5,0-11.1-2-11-10.9.5-47.4.4-94.9.4-142.3q0-238.35-.2-476.5c0-8.2,2.4-9.6,9.9-9.6q228.9.3,457.8.2v-.1H547q205.65,0,411.3-.1c7.8,0,9.9,2.1,9.9,9.8-.4,71.2-.4,142.3-.4,213.5q0,203.1.4,406.3c0,7.8-2.2,9.9-9.9,9.9-36.2-.4-72.5-.2-108.7-.2-22.1,0-21.7,0-22.1,22.1-.1,8.1,2.6,9.8,10.1,9.7,50.7-.3,101.5-.4,152.2,0,8.6.1,10.2-2.8,10.2-10.7q-.3-339.3-.2-678.4ZM841.3,777l101.8.1c7.8.1,9.9-2.2,9.9-10-.3-57.7-.2-115.4-.2-173V183.8c0-16.5-.2-16.2-17.2-16.2q-93.45.3-186.9.3H313.8c-85.3,0-170.7.1-256-.2-9,0-10.7,2.8-10.7,11.1q.3,164.1.1,328.2c0,86.4.3,172.7-.1,259,0,9.5,2.8,11.4,11.6,11.1,19.4-.7,38.9-.3,58.3-.3q261.45,0,523,.2c5.1,0,9.1.1,8.6-7-.4-5.6,0-10-8.1-9.7-17.1.6-34.3.1-51.4.1H301.4c-75.5,0-150.9-.2-226.4.3-10.3.1-12.4-3.1-12.2-12.8.7-34.6.4-69.2.4-103.8q0-225.45-.3-450.8c0-8.3,3-9.5,10.2-9.5,33.3.4,66.6.3,99.8.3l384.6-.1q184.35,0,368.8-.2c8.5,0,11.1,1.7,11,10.7-.5,58.7-.4,117.3-.4,176q0,190.35.3,380.6c0,7.3-1.8,9.7-9.3,9.6-29-.4-58-.3-87,0-5.7,0-13.6-3.5-13.5,8.3.1,12,8.6,8,13.9,8ZM734.5,843.4a81.21,81.21,0,0,1-42.6-16c-2.3-1.7-2.9-.9-3.6,1.3-4.2,12.2-8.6,24.3-12.9,36.4l-7.9,22.5a7.28,7.28,0,0,0,3.9-.1c7.7-1.3,15.5-2.4,23.3-3.9,2.2-.4,3.3.3,4.7,1.6,5.6,5.5,11.4,10.8,17.3,16.4-.2.2,0,.1,0-.1,6.6-18.5,13-36.9,19.7-55.4C737.3,843.8,736.3,843.5,734.5,843.4Zm54.9-15.1c-.6-1.7-1-2.9-3.2-1.3A80.74,80.74,0,0,1,743,843.3c-1.7.1-2.4.5-1.7,2.5,6.5,18.1,12.9,36.3,19.2,54.4.7,1.8,1.2,1.8,2.4.5,3.6-3.7,7.6-7,10.6-11.1,4.5-6.1,9.7-7.2,16.7-5.2,6.3,1.7,12.9,2.3,20.1,3.4-2.6-7.3-4.9-13.9-7.2-20.4-4.5-12.9-9.1-26-13.7-39.1ZM694,707.3a6.14,6.14,0,0,0-4.7,2.9,21.4,21.4,0,0,0-2.6,6c-.5,1.5,0,2,1.3,2.4a43.34,43.34,0,0,1,9,4.2c2.1,1.2,4.1,3.9,6.1,3.5s3.7-3,5.5-4.7l.2-.2c.9-.7.9-1.3.1-2.2-3.3-3.8-6.5-7.6-10.8-10.4A14.38,14.38,0,0,0,694,707.3Zm-8.8,91.2c.8.4,1.3.4,1.8-.4,2.9-4.8,7-8.5,11.2-12a1.29,1.29,0,0,0,.4-2l-3.1-5.8c-.3-.5-.4-1.2-1.2-1.2a.37.37,0,0,0-.3.1c-5.4,2.7-11.1,4.9-15.1,9.8-1.7,2-1.4,4.2,0,6.3,1.7,2.4,4,3.8,6.3,5.2Zm13.5-93.4c-.1.7.3.9.7,1.2,4.7,2.9,8.4,6.9,11.9,11.1.6.7,1.1,1.2,2.2.6,1.9-1.1,3.9-2.1,5.8-3.1.7-.4,1.5-.6.9-1.7-2.3-4.7-4.6-9.5-8.1-13.5a6.57,6.57,0,0,0-4.7-2.4l-.8.1c-2.6.4-7.4,5.3-7.9,7.7Zm47-7.3c-.9-10.2-5.8-10.7-13.6-6.5l-.7.4c-1,.4-1,1-.5,1.9a44.29,44.29,0,0,1,4.6,15c.1,1,.3,2,1.7,1.8,2.1-.3,4.2.2,6.3.4,1.3.1,1.9-.3,2-1.7,0-2.4.3-4.7.4-7.1h-.2c0-1.3.1-2.7,0-4.2Zm-73.8,46.1.5,3.6c.1,2,1,2.5,2.9,2a22.21,22.21,0,0,1,8.9-.4c2.1,0,4.2-.1,6.3,0,1,0,1.6-.2,1.9-1.3a59.41,59.41,0,0,1,1.8-6c.5-1.3.1-1.7-1-2.1-4.4-1.4-8.8-3-13.5-3.5-5.7-.7-8.3,1.8-7.8,7.7Zm7.3-10.7c3.5-.1,6.8.9,10.1,1.9,2.2.7,5,2.5,6.6,1.8,1.8-.8,2.6-3.9,4.1-5.9.8-1.2.9-1.8-.4-2.7a72.9,72.9,0,0,0-9.2-5.6c-8.4-4.3-12.6-1.7-12.8,7.9,0,1.1-.6,2.7,1.6,2.6Zm-2.1,50.3c.8.8,1.3-.1,1.7-.6,3-2.9,6.7-4.8,10.3-6.8,4.2-2.2,4.2-2.2,3.4-6.7-.2-1.1-.4-2.2-.6-3.4-.1-.8-.5-1.4-1.4-1.2-5.6,1.2-11.4,2-16.4,5.2a5.3,5.3,0,0,0-2.5,4.6C672,778.4,674.5,781,677.1,783.5Zm-5-17.7c.7,1.1,1.2,1.4,2.5.7a41.56,41.56,0,0,1,11.9-3.9c4.4-.9,4.4-.9,4.8-6.1,0-.4,0-1.6.1-2.7s-.2-1.5-1.4-1.6a61.23,61.23,0,0,0-11.3-.3c-9.5,1.1-11.6,5.7-6.6,13.9Zm50.5-74.9c-3.2.4-5.6,2.6-8,4.8-1,.9-1,1.6,0,2.6,2.9,2.7,4.6,6.1,6.5,9.5.9,1.6,1.3,4.1,2.6,4.7s3.6-.5,5.5-.9c3.6-.7,3.7-.8,2.9-4.4a46.34,46.34,0,0,0-3.7-12c-1.1-2.3-2.7-4.1-5.8-4.3Zm-8.7,126.3a38,38,0,0,1,3-12.8c.9-2.2,1-3.5-1.5-4.4a14,14,0,0,1-3.9-2.6c-1.1-.9-1.7-.7-2.5.4a62.54,62.54,0,0,0-5.9,10c-3.7,8-1.3,11.9,7.8,12.2,2,.6,2.9-.2,3-2.8Zm57.4,2.4c2.6-.3,7.8-5.4,8.2-7.9a.87.87,0,0,0-.5-1c-5-3-8.8-7.2-12.4-11.6-.6-.7-1.1-.6-1.8-.2L759,802c-.6.3-1.6.4-1,1.6,2.5,5,4.7,10,8.6,14a6.09,6.09,0,0,0,4.1,2.1,1.27,1.27,0,0,1,.6-.1Zm27.8-35.9c-5.5-.1-10.7-1.8-15.8-3.8-1-.4-1.4-.1-1.9.7a65.35,65.35,0,0,1-3.5,5.6c-.6.9-.7,1.4.3,2.1a70.47,70.47,0,0,0,9.9,6c8.4,3.9,12.3,1.4,12.5-7.8C800.6,785.4,801.4,783.7,799.1,783.7Zm8.5-29.1c-.5-1.3-1.2-2.5-1.8-3.8s-1.3-1.1-2.2-.5c-3.3,1.9-6.9,2.8-10.6,3.7-1.9.4-4.3.3-5.5,1.4-1.4,1.3-.4,3.8-.7,5.8-.5,3.5-.4,3.5,3.3,3.7,1.6.1,3.1.2,5.2.3,1.7-.1,3.9-.1,6.1-.4C807.9,764,809.9,760.8,807.6,754.6ZM747.2,823c-2.1-3.7-3.1-7.8-4-11.9-1-4.6-.9-4.6-5.5-4.8l-3.4-.1c-.7,0-1.5,0-1.5,1-.2,5.9-1.1,11.7.9,17.5a4.9,4.9,0,0,0,5.3,3.4c2.9-.1,5.4-1.4,7.8-2.8,1.3-.8.9-1.5.4-2.3Zm59.2-47.5c.4-2.6-.4-5.1-1-7.5-.2-.9-.8-1-1.6-.8-5.4,1.5-10.8,1-16.2.5-1-.1-1.5.1-1.7,1.1-.6,2.2-1.3,4.4-2,6.5-.3.9-.3,1.4.7,1.8,4.8,1.7,9.6,3.4,13.1,3.6,6,.3,8.1-1.3,8.7-5.2Zm-56.8,46c1.1,2.4,2.7,4.4,5.9,4.4,3.1-.4,5.5-2.5,7.8-4.6,1.1-1,1.2-1.7.1-2.7-2.7-2.6-4.4-5.9-6.2-9.1-.9-1.7-1.4-4.4-2.8-5.1-1.6-.7-4,.8-6,.9-2.6.2-3.1,1.3-2.5,3.7,1,4.2,1.9,8.5,3.7,12.5Zm39.7-15.3a31.47,31.47,0,0,0,2.4-5.6c.4-1.4,0-2-1.2-2.3-4.3-1.2-8-3.5-11.7-5.9-3.3-2.2-3.3-2.2-6.3.4a25.33,25.33,0,0,1-2.6,2.2c-1.3.9-1.4,1.6-.3,2.9a82.73,82.73,0,0,0,7.1,7.4c2.1,1.9,4.4,3.9,7,4.1a6.19,6.19,0,0,0,5.6-3.2Zm-1.7-54.3c5.5-1.2,11.1-2,16-4.9a5.6,5.6,0,0,0,3-4.8c-.5-3.7-2.8-6.4-5.5-8.8-.8-.7-1.3.1-1.7.5a41.84,41.84,0,0,1-10.3,6.8c-4.3,2.2-4.3,2.2-3.4,6.9a17,17,0,0,0,.6,3.1c.1.7.2,1.5,1.3,1.2Zm-38.1-60c-1.4.4-1.8.9-1.4,2.3a27.09,27.09,0,0,1,.5,9.4c0,2.5-.8,5.4.2,7.2,1.2,2,4.6,1.6,6.8,2.7,1.4.7,2,.1,2.4-1.2a90.84,90.84,0,0,0,2.9-9.8c2.1-9.8-1.8-13.3-11.4-10.6Zm24.2,6.3a18.73,18.73,0,0,0-7.4-1.4c-1.3,0-1.8.4-1.9,1.7a35.35,35.35,0,0,1-1.9,10.1c-.7,2.2-2.5,4.9-1.8,6.6s3.7,2.7,5.6,3.9l.2.1c1,.9,1.8.9,2.7-.4a59.34,59.34,0,0,0,6.3-10.9,17.81,17.81,0,0,0,1.3-4.9,5.06,5.06,0,0,0-3.1-4.8ZM728.8,825l.3-.1c1.1-.3,1.5-.7,1.2-2a25.47,25.47,0,0,1-.5-9.9c0-2.4.9-5.4-.3-6.9s-4.4-1.7-6.6-2.6c-1.5-.7-2.2-.4-2.7,1.2-1,3.3-2.1,6.5-2.9,9.9-2.3,10.5,2.4,12.6,11.5,10.4Zm52-66.5c.2-22.5-18.6-41.5-41.2-41.8-23.2-.3-41.8,18.2-42.1,41.8-.3,22.5,18.3,41.3,41.3,41.5A41.57,41.57,0,0,0,780.8,758.5ZM697.2,811l.3.1c.8.4,1.3.1,1.6-.8,1.6-5.5,4.6-10.2,7.9-14.8a1.19,1.19,0,0,0-.1-1.8c-1.6-1.6-3.1-3.3-4.7-5l-.9-.9c-.5.4-1,.7-1.4,1a74.21,74.21,0,0,0-7.6,7.2C684.8,804.1,688,808.5,697.2,811ZM787,708.4a33.88,33.88,0,0,0-5.5-2.4c-1.5-.5-2.3-.2-2.7,1.3-.8,3.3-2.6,6.1-4.2,9-1.2,2.1-4,4-3.4,6.1s3.1,3.6,4.7,5.5c.8.9,1.3,1.1,2.4.2a70.38,70.38,0,0,0,9.1-9,10.7,10.7,0,0,0,2.7-6,5.87,5.87,0,0,0-3.1-4.7Zm5.4,9.7c-.7-.2-.9.3-1.2.7-2.9,4.8-7.1,8.5-11.3,12a1.35,1.35,0,0,0-.4,2c1.1,1.9,2.1,3.9,3.1,5.8.4.7.6,1.5,1.7.9,4.8-2.4,9.7-4.6,13.6-8.3a6.56,6.56,0,0,0,2.3-4.3,3.4,3.4,0,0,0-.1-1c-.4-2.6-5.2-7.3-7.7-7.8Z" transform="translate(0 -121)"/></svg>