<?xml version="1.0" standalone="no"?>
<!DOCTYPE svg PUBLIC "-//W3C//DTD SVG 20010904//EN"
 "http://www.w3.org/TR/2001/REC-SVG-20010904/DTD/svg10.dtd">
<svg version="1.0" xmlns="http://www.w3.org/2000/svg"
 width="302.000000pt" height="276.000000pt" viewBox="0 0 302.000000 276.000000"
 preserveAspectRatio="xMidYMid meet">
<metadata>
Created by potrace 1.16, written by Peter Selinger 2001-2019
</metadata>
<g transform="translate(0.000000,276.000000) scale(0.100000,-0.100000)"
fill="#5764ec" stroke="none">
<path d="M1402 2360 c-141 -37 -274 -132 -351 -250 l-36 -55 -75 -1 c-57 0
-87 -6 -125 -25 -103 -49 -171 -148 -182 -263 -5 -62 -6 -63 -49 -86 -61 -32
-120 -99 -157 -178 -29 -61 -32 -76 -32 -162 0 -85 3 -102 31 -160 53 -111
153 -193 279 -226 28 -8 94 -14 148 -14 89 0 98 2 93 18 -23 78 -43 325 -32
386 4 20 20 52 37 71 27 30 57 43 295 122 l264 88 264 -88 c344 -115 346 -116
332 -331 -6 -97 -21 -212 -32 -248 -5 -16 3 -18 73 -18 230 0 415 132 469 334
71 265 -143 545 -418 546 -47 0 -47 0 -53 38 -24 142 -86 262 -185 356 -152
143 -361 197 -558 146z"/>
<path d="M1280 1422 c-124 -42 -231 -81 -238 -85 -15 -10 -16 -86 -1 -213 25
-226 87 -374 208 -494 82 -81 213 -163 261 -163 48 0 179 82 261 163 121 120
183 268 208 494 15 132 14 201 -3 215 -13 11 -453 162 -466 160 -3 0 -106 -35
-230 -77z m445 -187 c14 -13 25 -36 25 -51 0 -28 -196 -355 -232 -386 -41 -37
-74 -24 -159 60 -97 95 -107 125 -60 173 27 26 37 30 64 25 17 -4 46 -20 63
-37 l31 -30 73 118 c40 65 81 126 92 136 29 25 74 22 103 -8z"/>
</g>
</svg>
