<?xml version="1.0" standalone="no"?>
<!DOCTYPE svg PUBLIC "-//W3C//DTD SVG 20010904//EN"
 "http://www.w3.org/TR/2001/REC-SVG-20010904/DTD/svg10.dtd">
<svg version="1.0" xmlns="http://www.w3.org/2000/svg"
 width="315.000000pt" height="294.000000pt" viewBox="0 0 315.000000 294.000000"
 preserveAspectRatio="xMidYMid meet">
<metadata>
Created by potrace 1.16, written by Peter Selinger 2001-2019
</metadata>
<g transform="translate(0.000000,294.000000) scale(0.100000,-0.100000)"
fill="#ffffff" stroke="none">
<path d="M1420 2684 c-298 -38 -550 -162 -761 -373 -186 -185 -300 -395 -355
-651 -32 -149 -23 -440 17 -547 l8 -21 68 17 c56 15 68 21 66 37 -2 10 -9 60
-18 109 -43 260 18 538 171 774 65 99 210 248 303 311 403 270 916 264 1309
-17 67 -47 232 -207 232 -224 0 -5 -34 -9 -75 -9 l-75 0 0 -80 0 -80 174 0
c121 0 177 4 182 12 4 6 26 87 50 180 29 117 38 171 31 173 -7 2 -32 9 -57 15
-25 6 -52 13 -61 16 -12 3 -19 -4 -23 -23 -4 -15 -12 -45 -17 -66 l-10 -39
-87 90 c-185 190 -405 315 -662 373 -83 19 -331 33 -410 23z"/>
<path d="M1337 2234 c-4 -4 -7 -49 -7 -99 l0 -91 -62 -30 c-34 -16 -79 -41
-100 -56 -21 -16 -43 -28 -49 -28 -6 0 -41 18 -78 40 -37 22 -72 40 -78 40
-12 0 -225 -368 -221 -382 2 -4 36 -28 77 -51 l73 -42 0 -125 0 -125 -73 -42
c-41 -23 -75 -47 -77 -51 -4 -14 209 -382 221 -382 6 0 41 18 78 40 37 22 72
40 78 40 6 0 28 -12 49 -27 21 -16 66 -41 100 -57 l61 -29 3 -96 3 -96 225 0
225 0 3 97 3 96 42 17 c23 9 68 34 101 56 32 21 63 39 68 39 5 0 40 -18 77
-40 37 -22 72 -40 78 -40 12 0 225 368 221 382 -2 4 -36 28 -77 51 l-73 42 0
125 0 125 73 42 c41 23 75 47 77 51 4 14 -209 382 -221 382 -6 0 -41 -18 -78
-40 -37 -22 -72 -40 -77 -40 -5 0 -36 18 -68 39 -33 22 -78 47 -101 56 l-42
17 -3 96 -3 97 -221 3 c-121 1 -223 -1 -227 -4z m295 -226 l3 -72 75 -26 c102
-36 130 -52 206 -116 l65 -56 61 37 c34 20 64 32 68 28 4 -4 22 -34 39 -65
l32 -56 -63 -37 c-35 -20 -64 -38 -66 -40 -2 -1 4 -30 12 -63 20 -77 20 -187
0 -264 -8 -33 -14 -62 -12 -63 2 -2 31 -20 66 -40 l63 -37 -32 -56 c-17 -31
-35 -61 -39 -65 -4 -4 -34 8 -68 28 l-61 37 -65 -56 c-76 -64 -104 -80 -206
-116 l-75 -26 -3 -72 -3 -72 -69 0 -69 0 -3 72 -3 73 -75 26 c-102 35 -130 51
-206 115 l-64 55 -62 -36 c-33 -20 -64 -32 -68 -28 -4 4 -22 33 -39 65 l-32
56 53 31 c29 17 59 35 66 39 11 7 11 20 -2 69 -20 78 -20 188 0 266 13 49 13
62 2 69 -7 4 -37 22 -66 39 l-53 31 32 56 c17 32 35 61 39 65 4 4 35 -8 68
-28 l62 -36 64 55 c76 64 104 80 206 116 l75 26 3 72 3 72 69 0 69 0 3 -72z"/>
<path d="M1427 1761 c-98 -39 -181 -124 -219 -223 -30 -79 -23 -212 14 -288
35 -71 107 -143 178 -178 49 -24 66 -27 160 -27 94 0 111 3 160 27 71 35 143
107 178 178 24 49 27 66 27 160 0 94 -3 111 -27 160 -15 31 -49 77 -75 103
-75 75 -139 101 -253 104 -75 2 -105 -1 -143 -16z m231 -150 c80 -41 122 -111
122 -201 0 -127 -91 -220 -215 -220 -134 0 -225 89 -225 220 0 90 43 160 125
203 43 23 146 22 193 -2z"/>
<path d="M2720 1710 c-54 -14 -65 -20 -63 -36 2 -10 9 -59 18 -109 45 -266
-23 -554 -185 -796 -56 -82 -207 -233 -289 -289 -395 -265 -888 -265 -1285 1
-76 51 -224 188 -246 228 -10 20 -9 21 65 21 l75 0 0 80 0 80 -174 0 c-121 0
-177 -4 -182 -12 -4 -6 -26 -87 -50 -180 -29 -117 -38 -171 -31 -173 7 -2 32
-9 57 -15 25 -6 52 -13 61 -16 12 -3 19 4 23 23 4 15 12 45 17 66 l10 39 87
-90 c516 -532 1341 -535 1850 -8 173 179 285 390 338 636 25 115 25 373 0 480
-9 41 -20 77 -24 81 -4 3 -36 -1 -72 -11z"/>
</g>
</svg>
