<?xml version="1.0" standalone="no"?>
<!DOCTYPE svg PUBLIC "-//W3C//DTD SVG 20010904//EN"
 "http://www.w3.org/TR/2001/REC-SVG-20010904/DTD/svg10.dtd">
<svg version="1.0" xmlns="http://www.w3.org/2000/svg"
 width="334.000000pt" height="311.000000pt" viewBox="0 0 334.000000 311.000000"
 preserveAspectRatio="xMidYMid meet">
<metadata>
Created by potrace 1.16, written by Peter Selinger 2001-2019
</metadata>
<g transform="translate(0.000000,311.000000) scale(0.100000,-0.100000)"
fill="#5764ec" stroke="none">
<path d="M1578 2871 c-85 -28 -151 -104 -169 -194 -9 -45 -8 -65 5 -112 21
-71 89 -144 154 -163 l42 -13 0 -84 c0 -84 0 -85 -27 -90 -263 -50 -420 -161
-524 -370 -83 -168 -91 -374 -20 -537 l20 -47 -74 -45 -73 -44 -23 24 c-58 62
-180 85 -264 49 -160 -66 -203 -278 -81 -399 154 -154 415 -49 417 169 1 29
-2 61 -5 71 -4 15 9 27 66 60 l72 41 85 -87 c70 -71 102 -95 171 -129 112 -54
184 -71 300 -71 178 0 330 62 454 183 41 40 78 80 83 91 9 17 15 15 84 -25
l74 -43 -3 -67 c-5 -83 10 -130 56 -181 99 -109 254 -115 356 -12 96 96 100
233 10 333 -24 27 -63 57 -86 66 -88 36 -210 14 -266 -48 l-24 -25 -73 44 -74
45 20 47 c110 254 27 576 -196 762 -86 71 -195 116 -347 145 -28 5 -28 6 -28
90 l0 84 43 13 c99 29 177 157 162 263 -10 66 -61 144 -117 178 -51 32 -147
45 -200 28z m135 -85 c67 -29 115 -113 102 -179 -17 -82 -84 -137 -165 -137
-145 0 -219 167 -121 274 49 53 120 70 184 42z m72 -667 c83 -18 186 -73 255
-137 244 -225 251 -601 16 -836 -109 -109 -249 -166 -406 -166 -160 0 -297 57
-411 170 -228 227 -221 607 14 826 149 138 328 186 532 143z m-1012 -943 c72
-26 109 -79 109 -156 0 -80 -44 -138 -123 -162 -85 -25 -191 44 -204 134 -8
51 16 118 53 151 22 20 86 46 112 46 8 0 32 -6 53 -13z m1887 -11 c59 -30 95
-104 85 -174 -10 -64 -72 -126 -136 -136 -105 -16 -191 60 -191 166 0 125 129
201 242 144z"/>
<path d="M1585 1784 c-107 -16 -214 -65 -281 -126 -45 -41 -53 -65 -32 -86 20
-20 36 -14 91 31 170 138 417 135 584 -7 44 -38 62 -43 81 -24 21 21 13 45
-32 86 -50 46 -117 83 -193 105 -57 17 -170 28 -218 21z"/>
<path d="M1545 1607 c-128 -43 -205 -125 -146 -156 15 -8 28 -4 62 21 24 18
65 40 92 50 91 35 193 17 286 -50 34 -25 47 -29 62 -21 50 26 4 89 -101 138
-66 30 -191 39 -255 18z"/>
<path d="M1604 1451 c-76 -19 -130 -74 -104 -106 17 -21 46 -19 80 6 18 14 43
22 70 22 27 0 52 -8 70 -22 34 -25 63 -27 80 -6 43 52 -101 129 -196 106z"/>
<path d="M1199 2601 c-139 -61 -286 -165 -385 -274 -216 -239 -328 -571 -295
-877 12 -107 21 -130 51 -130 37 0 42 22 30 132 -19 177 14 377 90 545 102
225 315 434 537 527 84 36 105 55 87 84 -17 26 -43 24 -115 -7z"/>
<path d="M1991 2616 c-7 -8 -11 -23 -9 -33 3 -18 12 -24 120 -73 211 -96 410
-298 508 -513 76 -168 109 -368 90 -545 -12 -110 -7 -132 30 -132 30 0 39 23
51 130 49 454 -208 917 -626 1124 -110 55 -146 64 -164 42z"/>
<path d="M912 748 c-26 -26 -11 -49 70 -109 236 -175 541 -250 838 -204 126
19 214 47 335 106 108 52 238 145 243 173 5 21 -15 46 -37 46 -9 0 -36 -16
-61 -36 -64 -51 -163 -108 -247 -143 -343 -141 -734 -92 -1034 130 -69 51 -87
57 -107 37z"/>
</g>
</svg>
