<?xml version="1.0" standalone="no"?>
<!DOCTYPE svg PUBLIC "-//W3C//DTD SVG 20010904//EN"
 "http://www.w3.org/TR/2001/REC-SVG-20010904/DTD/svg10.dtd">
<svg version="1.0" xmlns="http://www.w3.org/2000/svg"
 width="274.000000pt" height="274.000000pt" viewBox="0 0 274.000000 274.000000"
 preserveAspectRatio="xMidYMid meet">
<metadata>
Created by potrace 1.16, written by Peter Selinger 2001-2019
</metadata>
<g transform="translate(0.000000,274.000000) scale(0.100000,-0.100000)"
fill="#5764ec" stroke="none">
<path d="M951 2595 c-46 -53 -43 -97 9 -146 l40 -38 0 -236 0 -235 -50 0 -49
0 -3 83 -3 82 -66 3 c-62 3 -68 1 -88 -24 -12 -15 -21 -38 -21 -51 0 -60 -56
-113 -118 -113 -16 0 -44 10 -63 23 -51 34 -67 38 -102 23 -40 -17 -134 -115
-143 -150 -4 -19 2 -38 25 -74 34 -54 39 -88 16 -132 -20 -39 -53 -60 -92 -60
-19 0 -43 -9 -60 -24 -27 -24 -28 -27 -28 -124 0 -114 11 -137 74 -147 57 -10
80 -22 101 -57 28 -46 25 -84 -11 -140 -23 -36 -29 -55 -25 -74 9 -35 103
-133 143 -150 35 -15 51 -11 102 23 19 13 47 23 63 23 62 0 118 -53 118 -113
0 -13 9 -36 21 -51 20 -25 26 -27 88 -24 l66 3 3 83 3 82 49 0 50 0 0 -235 0
-236 -40 -38 c-52 -49 -55 -93 -9 -146 27 -31 37 -35 78 -35 49 0 80 18 100
57 23 46 7 110 -36 138 l-23 15 0 256 c0 157 -4 263 -10 275 -9 16 -22 19 -85
19 l-74 0 -3 82 -3 82 -62 13 c-112 22 -190 79 -234 172 -32 65 -32 177 0 243
45 93 120 148 234 171 l62 13 3 82 3 82 74 0 c63 0 76 3 85 19 6 12 10 118 10
275 l0 256 23 15 c43 28 59 92 36 138 -20 39 -51 57 -100 57 -41 0 -51 -4 -78
-35z m-121 -694 l0 -138 -41 -7 c-97 -16 -208 -106 -255 -209 -41 -89 -41
-205 0 -294 47 -103 158 -193 255 -209 l41 -7 0 -138 c0 -129 -1 -139 -19
-139 -14 0 -20 10 -25 38 -8 55 -44 104 -96 130 -59 30 -112 28 -178 -5 l-53
-27 -49 50 -50 49 26 37 c46 64 42 159 -8 223 -24 31 -88 65 -123 65 -25 0
-25 1 -25 80 0 79 0 80 25 80 35 0 99 34 123 65 50 64 54 159 8 223 l-26 37
50 49 49 50 53 -27 c66 -33 119 -35 178 -4 52 25 88 74 96 129 5 28 11 38 25
38 18 0 19 -10 19 -139z"/>
<path d="M1459 2601 c-24 -24 -29 -38 -29 -77 0 -40 5 -51 35 -80 l35 -32 2
-419 3 -418 208 -3 207 -2 0 -65 0 -65 -75 0 c-67 0 -76 2 -90 23 -37 57 -112
62 -161 13 -28 -28 -34 -42 -34 -76 0 -105 139 -150 195 -63 14 21 23 23 90
23 l75 0 0 -65 0 -65 -207 -2 -208 -3 -3 -418 -2 -419 -35 -32 c-30 -29 -35
-40 -35 -80 0 -39 5 -53 29 -77 57 -57 159 -31 180 46 11 43 -5 91 -39 117
l-30 22 0 388 0 388 175 0 175 0 0 -115 0 -115 -68 0 c-40 0 -73 -5 -80 -12
-8 -8 -12 -49 -12 -121 l0 -108 -35 -33 c-30 -29 -35 -40 -35 -80 0 -39 5 -53
29 -77 57 -56 155 -32 181 45 14 43 -6 96 -44 121 -25 16 -26 22 -26 106 l0
89 48 0 c47 0 50 -1 67 -39 37 -82 115 -131 207 -131 105 1 196 73 219 175 11
49 13 52 53 63 54 14 128 79 155 137 25 54 28 147 6 203 -15 37 -15 41 10 90
45 90 29 219 -36 288 -14 15 -21 38 -23 75 -4 89 -63 175 -138 201 -18 7 -29
19 -33 40 -9 41 -71 107 -120 129 -48 22 -133 24 -179 5 -48 -20 -100 -70
-121 -116 -17 -39 -20 -40 -67 -40 l-48 0 0 89 c0 84 1 90 26 106 38 25 58 78
44 121 -26 77 -124 101 -181 45 -24 -24 -29 -38 -29 -77 0 -40 5 -51 35 -80
l35 -33 0 -108 c0 -72 4 -113 12 -121 7 -7 40 -12 80 -12 l68 0 0 -115 0 -115
-175 0 -175 0 0 388 0 388 30 22 c34 26 50 74 39 117 -21 77 -123 103 -180 46z
m805 -611 l40 -44 -47 -12 c-89 -23 -146 -88 -99 -113 14 -8 27 -4 55 16 107
76 251 7 251 -122 0 -51 -6 -65 -54 -125 -45 -56 14 -83 65 -30 16 17 32 30
36 30 15 0 39 -71 39 -119 0 -81 -29 -123 -59 -87 -15 18 -95 46 -132 46 -14
0 -32 -7 -40 -16 -20 -24 1 -48 51 -56 93 -16 160 -92 160 -182 0 -76 -37
-138 -103 -172 -56 -30 -170 -13 -206 29 -33 40 -84 1 -55 -42 17 -23 103 -71
130 -71 13 0 15 -6 10 -32 -14 -72 -82 -128 -156 -128 -61 0 -108 31 -137 90
-23 44 -23 45 -23 550 0 505 0 506 23 550 12 25 38 55 57 68 29 20 44 23 94
20 54 -4 62 -8 100 -48z"/>
<path d="M1218 2131 c-28 -25 -33 -36 -33 -76 0 -41 4 -51 38 -81 l37 -34 0
-150 0 -150 -179 0 c-150 0 -180 2 -185 15 -9 23 -83 19 -141 -9 -167 -79
-209 -300 -82 -435 62 -65 207 -108 223 -66 5 13 35 15 185 15 l179 0 0 -153
c0 -153 0 -154 -25 -167 -13 -7 -31 -28 -40 -47 -46 -97 56 -189 154 -139 65
34 66 151 1 186 -19 10 -20 21 -20 189 0 136 -3 181 -13 190 -9 7 -86 12 -213
13 l-199 3 -3 63 -3 62 79 0 c73 0 81 -2 95 -23 56 -85 197 -40 197 63 0 103
-141 148 -197 63 -14 -21 -22 -23 -95 -23 l-79 0 3 63 3 62 199 3 c127 1 204
6 213 13 10 9 13 54 13 190 0 168 1 179 20 189 25 13 50 61 50 94 0 94 -111
141 -182 77z m-388 -732 l0 -200 -22 6 c-29 9 -86 53 -112 88 -24 32 -33 130
-17 179 16 49 105 128 144 128 4 0 7 -90 7 -201z"/>
</g>
</svg>
