<?xml version="1.0" standalone="no"?>
<!DOCTYPE svg PUBLIC "-//W3C//DTD SVG 20010904//EN"
 "http://www.w3.org/TR/2001/REC-SVG-20010904/DTD/svg10.dtd">
<svg version="1.0" xmlns="http://www.w3.org/2000/svg"
 width="331.000000pt" height="318.000000pt" viewBox="0 0 331.000000 318.000000"
 preserveAspectRatio="xMidYMid meet">
<metadata>
Created by potrace 1.16, written by Peter Selinger 2001-2019
</metadata>
<g transform="translate(0.000000,318.000000) scale(0.100000,-0.100000)"
fill="#5764ec" stroke="none">
<path d="M713 2852 c-6 -4 -16 -20 -22 -34 -13 -34 -74 -63 -101 -48 -34 18
-55 10 -103 -38 -48 -48 -55 -68 -37 -102 15 -29 -14 -89 -50 -102 -35 -12
-42 -32 -38 -113 3 -57 5 -61 35 -74 44 -19 63 -69 49 -122 -10 -39 -10 -40
42 -91 51 -52 52 -52 87 -39 48 17 99 -1 116 -41 15 -37 37 -48 91 -48 65 0
85 9 99 42 7 17 26 37 46 46 28 13 39 14 69 3 28 -10 38 -10 50 0 13 10 22 6
57 -29 39 -39 40 -42 24 -60 -21 -23 -21 -42 -2 -89 14 -34 14 -40 -5 -80 -11
-23 -20 -47 -20 -53 0 -6 -17 -18 -37 -27 -54 -24 -73 -43 -73 -70 l0 -23
-177 0 -178 0 -17 30 c-52 92 -181 91 -238 -2 -72 -118 71 -259 188 -188 18
11 41 34 50 50 l17 30 178 0 177 0 0 -23 c0 -27 19 -46 73 -70 20 -9 37 -21
37 -27 0 -6 9 -30 20 -53 19 -40 19 -46 5 -80 -19 -47 -19 -66 2 -89 16 -18
15 -21 -24 -60 -35 -35 -44 -39 -57 -29 -12 10 -22 10 -50 0 -30 -11 -41 -10
-69 3 -20 9 -39 29 -46 46 -14 33 -34 42 -99 42 -54 0 -76 -11 -91 -48 -17
-40 -68 -58 -116 -41 -35 13 -36 13 -87 -39 -52 -51 -52 -52 -42 -91 14 -53
-5 -103 -49 -122 -30 -13 -32 -17 -35 -74 -4 -81 3 -101 38 -113 36 -13 65
-73 50 -102 -18 -34 -10 -55 38 -103 48 -48 68 -55 102 -37 29 15 89 -14 102
-50 12 -35 32 -42 113 -38 57 3 61 5 74 35 19 44 69 63 122 49 39 -10 40 -10
91 42 52 51 52 52 39 87 -17 48 1 99 42 116 33 14 47 44 47 97 0 59 -9 78 -44
95 -45 21 -64 67 -47 114 10 27 10 37 0 49 -10 13 -6 22 29 57 39 39 42 40 60
24 23 -21 42 -21 89 -2 34 14 40 14 80 -5 23 -11 47 -20 53 -20 6 0 18 -17 27
-38 24 -53 43 -72 70 -72 l23 0 0 -177 0 -178 -30 -17 c-16 -9 -39 -32 -50
-50 -71 -117 70 -260 188 -188 93 57 94 186 2 238 l-30 17 0 178 0 177 23 0
c27 0 46 19 70 73 9 20 21 37 27 37 6 0 30 9 53 20 40 19 46 19 80 5 47 -19
66 -19 89 2 18 16 21 15 60 -24 35 -35 39 -44 29 -57 -10 -12 -10 -22 0 -49
17 -47 -2 -93 -47 -114 -36 -17 -44 -36 -44 -101 0 -54 11 -76 48 -91 40 -17
58 -68 41 -116 -13 -35 -13 -36 39 -87 51 -52 52 -52 91 -42 53 14 103 -5 122
-49 13 -30 17 -32 74 -35 81 -4 101 3 113 38 13 36 73 65 102 50 34 -18 55
-10 103 38 48 48 55 68 37 102 -15 29 14 89 50 102 35 12 42 32 38 113 -3 57
-5 61 -35 74 -44 19 -63 69 -49 122 10 39 10 40 -42 91 -51 52 -52 52 -87 39
-48 -17 -99 1 -116 41 -15 37 -37 48 -91 48 -65 0 -84 -8 -101 -44 -21 -45
-67 -64 -114 -47 -27 10 -37 10 -49 0 -13 -10 -22 -6 -57 29 -39 39 -40 42
-24 60 21 23 21 42 2 89 -14 34 -14 40 5 80 11 23 20 47 20 53 0 6 17 18 38
27 53 24 72 43 72 70 l0 23 178 0 177 0 17 -30 c52 -92 181 -91 238 2 72 118
-71 259 -188 188 -18 -11 -41 -34 -50 -50 l-17 -30 -177 0 -178 0 0 23 c0 27
-19 46 -72 70 -21 9 -38 21 -38 27 0 6 -9 30 -20 53 -19 40 -19 46 -5 80 19
47 19 66 -2 89 -16 18 -15 21 24 60 35 35 44 39 57 29 12 -10 22 -10 49 0 47
17 93 -2 114 -47 17 -36 36 -44 101 -44 54 0 76 11 91 48 17 40 68 58 116 41
35 -13 36 -13 87 39 52 51 52 52 42 91 -14 53 5 103 49 122 30 13 32 17 35 74
4 81 -3 101 -38 113 -36 13 -65 73 -50 102 18 34 10 55 -38 103 -48 48 -68 55
-102 37 -29 -15 -89 14 -102 50 -12 35 -32 42 -113 38 -57 -3 -61 -5 -74 -35
-19 -44 -69 -63 -122 -49 -39 10 -40 10 -91 -42 -52 -51 -52 -52 -39 -87 17
-48 -1 -99 -41 -116 -37 -15 -48 -37 -48 -91 0 -65 9 -85 42 -99 17 -7 37 -26
46 -46 13 -28 14 -39 3 -69 -10 -28 -10 -38 0 -50 10 -13 6 -22 -29 -57 -39
-39 -42 -40 -60 -24 -23 21 -42 21 -89 2 -34 -14 -40 -14 -80 5 -23 11 -47 20
-53 20 -6 0 -18 17 -27 38 -24 53 -43 72 -70 72 l-23 0 0 178 0 177 30 17 c16
9 39 32 50 50 71 117 -70 260 -188 188 -93 -57 -94 -186 -2 -238 l30 -17 0
-177 0 -178 -23 0 c-27 0 -46 -19 -70 -72 -9 -21 -21 -38 -27 -38 -6 0 -30 -9
-53 -20 -40 -19 -46 -19 -80 -5 -47 19 -66 19 -89 -2 -18 -16 -21 -15 -60 24
-35 35 -39 44 -29 57 10 12 10 22 0 50 -11 30 -10 41 3 69 9 20 29 39 46 46
33 14 42 34 42 99 0 54 -11 76 -48 91 -40 17 -58 68 -41 116 13 35 13 36 -39
87 -51 52 -52 52 -91 42 -53 -14 -103 5 -122 49 -14 31 -16 32 -84 35 -38 1
-75 -1 -82 -6z m112 -101 c9 -19 28 -34 52 -41 21 -7 44 -17 50 -22 7 -6 32
-7 56 -4 55 8 72 -7 57 -50 -14 -40 27 -143 64 -162 36 -18 37 -67 2 -76 -14
-3 -28 -16 -32 -29 -3 -12 -16 -41 -27 -65 -16 -36 -18 -47 -8 -69 10 -22 9
-29 -7 -45 -16 -16 -23 -17 -45 -7 -22 10 -33 8 -69 -8 -24 -11 -53 -24 -65
-27 -13 -4 -26 -18 -29 -32 -9 -35 -58 -34 -76 2 -19 37 -122 78 -162 64 -43
-15 -58 2 -50 57 3 24 2 49 -4 56 -5 6 -15 29 -22 50 -7 24 -22 43 -41 52 -39
21 -40 58 -1 74 34 15 77 117 68 164 -8 41 9 59 49 51 50 -9 151 33 166 69 16
38 53 37 74 -2z m1624 2 c15 -36 116 -78 166 -69 40 8 57 -10 49 -51 -9 -47
34 -149 69 -164 38 -16 37 -53 -2 -74 -19 -9 -34 -28 -41 -52 -7 -21 -17 -44
-22 -50 -6 -7 -7 -32 -4 -56 8 -55 -7 -72 -50 -57 -40 14 -143 -27 -162 -64
-18 -36 -67 -37 -76 -2 -3 14 -16 28 -29 32 -12 3 -41 16 -65 27 -36 16 -47
18 -69 8 -22 -10 -29 -9 -45 7 -16 16 -17 23 -7 45 10 22 8 33 -8 69 -11 24
-24 53 -27 65 -4 13 -18 26 -32 29 -35 9 -34 58 2 76 37 19 78 122 64 162 -15
43 2 58 57 50 24 -3 49 -2 56 4 6 5 29 15 50 22 24 7 43 22 52 41 21 39 58 40
74 2z m-785 -647 c16 -40 22 -46 69 -62 29 -9 67 -25 86 -35 31 -16 37 -17 69
-3 20 8 38 17 41 20 3 2 22 -12 42 -32 30 -29 36 -41 29 -55 -27 -49 -29 -67
-11 -100 10 -19 26 -57 35 -86 16 -47 22 -53 62 -69 43 -17 44 -17 44 -64 0
-47 -1 -47 -44 -64 -40 -16 -46 -22 -62 -69 -9 -29 -25 -67 -35 -86 -18 -33
-16 -51 11 -100 7 -14 1 -26 -29 -55 -20 -20 -39 -34 -42 -32 -3 3 -21 12 -40
20 -31 13 -39 13 -63 1 -15 -8 -53 -24 -86 -36 -54 -19 -61 -25 -76 -65 -16
-43 -17 -44 -64 -44 -47 0 -47 1 -64 44 -16 40 -22 46 -69 62 -29 9 -67 25
-86 35 -31 16 -37 17 -69 3 -20 -8 -38 -17 -41 -20 -3 -2 -22 12 -42 32 -30
29 -36 41 -29 55 25 46 28 67 15 93 -8 15 -24 53 -36 86 -19 54 -25 61 -65 76
-43 16 -44 17 -44 64 0 47 1 47 44 64 40 16 46 22 62 69 9 29 25 67 35 86 16
31 17 37 3 69 -8 20 -17 38 -20 41 -2 3 12 22 32 42 29 30 41 36 55 29 49 -27
67 -29 100 -11 19 10 57 26 86 35 47 16 53 22 69 62 17 43 17 44 64 44 47 0
47 -1 64 -44z m-840 -980 c3 -14 16 -28 29 -32 12 -3 41 -16 65 -27 36 -16 47
-18 69 -8 22 10 29 9 45 -7 16 -16 17 -23 7 -45 -10 -22 -8 -33 8 -69 11 -24
24 -53 27 -65 4 -13 18 -26 32 -29 35 -9 34 -58 -2 -76 -37 -19 -78 -122 -64
-162 15 -43 -2 -58 -57 -50 -24 3 -49 2 -56 -4 -6 -5 -29 -15 -50 -22 -24 -7
-43 -22 -52 -41 -21 -39 -58 -40 -74 -1 -15 34 -117 77 -164 68 -41 -8 -59 9
-51 49 9 50 -33 151 -68 166 -39 16 -38 53 1 74 19 9 34 28 41 52 7 21 17 44
22 50 6 7 7 32 4 56 -8 55 7 72 50 57 40 -14 143 27 162 64 18 36 67 37 76 2z
m1628 -2 c19 -37 122 -78 162 -64 43 15 58 -2 50 -57 -3 -24 -2 -49 4 -56 5
-6 15 -29 22 -50 7 -24 22 -43 41 -52 39 -21 40 -58 2 -74 -36 -15 -78 -116
-69 -166 8 -40 -10 -57 -51 -49 -47 9 -149 -34 -164 -68 -16 -39 -53 -38 -74
1 -9 19 -28 34 -52 41 -21 7 -44 17 -50 22 -7 6 -32 7 -56 4 -55 -8 -72 7 -57
50 14 40 -27 143 -64 162 -36 18 -37 67 -2 76 14 3 28 16 32 29 3 12 16 41 27
65 16 36 18 47 8 69 -10 22 -9 29 7 45 16 16 23 17 45 7 22 -10 33 -8 69 8 24
11 53 24 65 27 13 4 26 18 29 32 9 35 58 34 76 -2z"/>
<path d="M682 2644 c-140 -69 -175 -246 -74 -364 60 -71 141 -99 231 -79 191
41 251 283 101 411 -74 64 -171 76 -258 32z m174 -70 c98 -47 119 -172 42
-251 -99 -103 -268 -31 -268 115 0 75 77 152 152 152 22 0 55 -7 74 -16z"/>
<path d="M2331 2657 c-92 -35 -154 -124 -155 -223 0 -224 271 -324 417 -154
126 148 27 378 -167 387 -33 1 -76 -3 -95 -10z m160 -90 c48 -33 79 -83 79
-129 0 -146 -169 -218 -268 -115 -100 103 -30 266 114 267 26 0 53 -8 75 -23z"/>
<path d="M1492 1932 c-141 -51 -231 -190 -220 -337 10 -117 80 -220 187 -272
48 -24 68 -28 141 -28 73 0 93 4 141 28 66 32 132 99 162 165 34 73 31 198 -6
273 -32 67 -100 132 -165 162 -66 29 -172 33 -240 9z m236 -99 c157 -97 161
-325 6 -423 -119 -75 -273 -38 -349 84 -26 44 -30 58 -30 125 0 65 4 83 28
123 52 89 132 131 235 124 47 -3 75 -11 110 -33z"/>
<path d="M735 1041 c-158 -40 -233 -221 -149 -358 76 -123 245 -149 354 -56
161 138 81 394 -130 417 -25 3 -58 1 -75 -3z m94 -81 c19 -5 50 -24 68 -42
103 -99 31 -268 -115 -268 -75 0 -152 77 -152 152 0 74 38 129 107 154 47 16
50 16 92 4z"/>
<path d="M2347 1036 c-103 -28 -171 -120 -171 -230 1 -236 313 -324 438 -123
113 183 -59 411 -267 353z m144 -92 c72 -37 101 -149 57 -214 -34 -49 -83 -80
-130 -80 -146 0 -218 169 -115 268 54 53 120 62 188 26z"/>
</g>
</svg>
