<?xml version="1.0" standalone="no"?>
<!DOCTYPE svg PUBLIC "-//W3C//DTD SVG 20010904//EN"
 "http://www.w3.org/TR/2001/REC-SVG-20010904/DTD/svg10.dtd">
<svg version="1.0" xmlns="http://www.w3.org/2000/svg"
 width="373.000000pt" height="324.000000pt" viewBox="0 0 373.000000 324.000000"
 preserveAspectRatio="xMidYMid meet">
<metadata>
Created by potrace 1.16, written by Peter Selinger 2001-2019
</metadata>
<g transform="translate(0.000000,324.000000) scale(0.100000,-0.100000)"
fill="#5764ec" stroke="none">
<path d="M1372 2920 c-196 -51 -355 -199 -419 -389 -22 -66 -22 -66 -75 -82
-119 -35 -197 -101 -244 -203 -90 -198 16 -428 226 -490 45 -13 115 -16 417
-16 l363 0 0 -79 0 -79 -132 -4 c-119 -3 -137 -5 -171 -27 -21 -13 -50 -42
-65 -64 l-27 -40 -5 -319 -5 -318 -33 -32 -32 -33 -130 -3 c-112 -3 -130 -1
-130 12 0 8 -17 33 -38 55 -64 67 -157 68 -223 2 -41 -41 -55 -88 -44 -148 9
-49 69 -109 118 -118 62 -12 108 3 149 46 21 22 38 46 38 53 0 11 30 15 138
18 131 3 141 5 179 30 22 15 51 44 64 65 24 37 24 43 29 355 l5 318 33 32 32
33 125 3 125 4 0 -135 c0 -152 7 -170 81 -207 l39 -20 0 -260 0 -260 -60 0
-60 0 0 -40 0 -40 88 0 c55 0 92 4 100 12 9 9 12 87 12 291 0 260 1 278 18
273 9 -2 45 -8 80 -11 l62 -7 0 -207 c0 -148 3 -210 12 -219 9 -9 68 -12 205
-12 162 0 193 -2 193 -15 0 -8 17 -32 38 -54 64 -67 157 -68 223 -2 113 112
12 296 -146 267 -42 -8 -103 -58 -111 -92 l-6 -24 -164 0 -164 0 0 179 0 178
90 12 c113 14 195 44 238 87 28 28 32 38 32 88 l0 56 68 0 c40 0 73 -5 80 -12
8 -8 12 -64 12 -188 0 -124 4 -180 12 -188 8 -8 49 -12 120 -12 l108 0 0 40 0
40 -79 0 -80 0 -3 165 -3 165 -33 32 c-31 31 -37 33 -117 37 l-85 3 0 158 0
158 143 4 c130 3 147 6 203 31 196 90 273 339 159 516 -25 39 -85 98 -126 123
-43 27 -129 48 -195 48 l-63 0 -12 42 c-25 93 -90 181 -170 231 -89 54 -222
59 -327 12 l-62 -28 -63 59 c-150 141 -359 195 -555 144z m267 -75 c171 -41
315 -171 372 -339 15 -43 22 -51 41 -48 63 7 63 17 -8 179 -3 7 13 22 38 35
63 33 174 32 242 -2 140 -71 194 -242 122 -381 l-25 -49 29 -20 c15 -11 31
-20 34 -20 9 0 53 92 65 138 l12 42 58 0 c94 0 156 -24 215 -83 114 -115 114
-279 1 -392 -68 -69 -121 -85 -276 -85 l-119 0 0 40 0 40 68 0 c40 0 73 5 80
12 8 8 12 45 12 100 0 81 2 88 20 88 17 0 20 7 20 40 l0 40 -48 0 c-26 0 -53
-5 -60 -12 -8 -8 -12 -45 -12 -100 l0 -88 -40 0 c-30 0 -40 4 -40 16 0 28 -63
80 -122 102 -32 12 -98 27 -147 33 l-89 12 -4 64 c-3 56 -8 68 -36 96 l-32 32
-130 3 c-102 3 -130 7 -130 17 0 8 -17 32 -38 54 -64 67 -157 68 -223 2 -65
-65 -65 -157 0 -222 66 -66 159 -65 223 2 21 22 38 46 38 54 0 12 21 15 113
15 75 0 117 -4 125 -12 7 -7 12 -33 12 -58 l0 -46 -90 -12 c-113 -15 -195 -46
-237 -88 -33 -32 -33 -33 -33 -128 l0 -96 -359 0 c-422 0 -433 2 -518 86 -78
78 -100 172 -67 284 23 76 100 153 179 176 166 48 334 -57 361 -225 6 -40 7
-41 47 -41 l40 0 -7 47 c-9 65 -47 144 -96 197 -42 45 -146 106 -182 106 -28
0 -22 38 19 121 107 215 349 329 582 274z m16 -490 c50 -49 15 -135 -55 -135
-19 0 -40 9 -55 25 -16 15 -25 36 -25 55 0 19 9 40 25 55 15 16 36 25 55 25
19 0 40 -9 55 -25z m590 -318 c60 -17 115 -44 115 -57 0 -5 -17 -18 -37 -28
-69 -35 -143 -47 -283 -47 -140 0 -214 12 -282 47 -21 10 -38 23 -38 28 0 15
70 47 130 59 30 6 64 13 75 15 39 9 271 -3 320 -17z m-205 -211 c151 0 171 2
243 26 l77 26 0 -74 0 -74 -37 -18 c-69 -35 -143 -47 -283 -47 -140 0 -214 12
-282 47 l-38 18 0 74 0 74 78 -26 c71 -24 91 -26 242 -26z m0 -240 c151 0 171
2 243 26 l77 26 0 -74 0 -74 -37 -18 c-69 -35 -143 -47 -283 -47 -140 0 -214
12 -282 47 l-38 18 0 74 0 74 78 -26 c71 -24 91 -26 242 -26z m0 -240 c151 0
171 2 243 26 l77 26 0 -74 0 -74 -37 -18 c-69 -35 -143 -47 -283 -47 -140 0
-214 12 -282 47 l-38 18 0 74 0 74 78 -26 c71 -24 91 -26 242 -26z m-1225
-591 c16 -15 25 -36 25 -55 0 -19 -9 -40 -25 -55 -15 -16 -36 -25 -55 -25 -19
0 -40 9 -55 25 -16 15 -25 36 -25 55 0 19 9 40 25 55 15 16 36 25 55 25 19 0
40 -9 55 -25z m1800 0 c50 -49 15 -135 -55 -135 -19 0 -40 9 -55 25 -16 15
-25 36 -25 55 0 19 9 40 25 55 15 16 36 25 55 25 19 0 40 -9 55 -25z"/>
<path d="M892 2289 c-47 -14 -109 -79 -123 -131 -23 -89 12 -182 88 -229 36
-23 48 -24 231 -27 l192 -4 0 41 0 40 -185 3 -185 3 -32 33 c-28 28 -33 39
-33 82 0 40 5 54 29 79 16 16 42 33 57 36 26 6 29 11 29 46 0 43 -6 45 -68 28z"/>
</g>
</svg>
