<svg id="Capa_1" data-name="Capa 1" xmlns="http://www.w3.org/2000/svg" viewBox="0 0 648.5 875"><defs><style>.cls-1{fill:#5764ec;}</style></defs><path class="cls-1" d="M811.2,168.5c-255.8,0-298.9-96.9-299.6-98a12.09,12.09,0,0,0-11.4-8h-.4a12.39,12.39,0,0,0-11.7,8c-.4,1-44.5,98-299.6,98a12.76,12.76,0,0,0-12.8,12.8V616.5c0,178.1,306.2,314.5,318.9,320,1.8,1,3.4,1,5.5,1,1.4,0,3.4,0,4.8-1,13.1-5.5,319.3-141.8,319.3-320V181.2c.2-6.9-5.7-12.7-13-12.7ZM719.1,355.2c-115,105.6-204.7,251.3-232,321a6.39,6.39,0,0,1-5.2,4.1,1.1,1.1,0,0,1-1,.4,5.61,5.61,0,0,1-4.8-2.1L307,506.7c-1-1.4,49.7-46.6,52.2-44.9L452,534.6c36.2-42.4,125-138.4,248.5-214,2.5,0,20.4,26.9,20.4,26.9a7,7,0,0,1-1.8,7.7Z" transform="translate(-175.7 -62.5)"/></svg>